# xmcd CD database file
#
# Track frame offsets:
#	150
#	20492
#	36315
#	40040
#
# Disc length: 803 seconds
#
# Revision: 3
# Processed by: cddbd v1.5.1PL2 Copyright (c) Steve Scherf et al.
# Submitted via: CDex 1.60beta1-cs1
#
DISCID=29032104
DTITLE=広末涼子 - 大スキ！
DYEAR=1997
DGENRE=JPop
TTITLE0=大スキ！/original version
TTITLE1=大スキ！/sun-deck version
TTITLE2=大スキ！/CM version
TTITLE3=大スキ！/original karaoke
EXTD=YEAR: 1997
EXTT0=
EXTT1=
EXTT2=
EXTT3=
PLAYORDER=
